<svg width="620" height="1094" viewBox="0 0 620 1094" xmlns="http://www.w3.org/2000/svg" xmlns:xlink="http://www.w3.org/1999/xlink"><defs><rect id="b" width="600" height="1074" rx="16"/><filter x="-2.9%" y="-1.2%" width="105.8%" height="103.3%" filterUnits="objectBoundingBox" id="a"><feOffset dy="5" in="SourceAlpha" result="shadowOffsetOuter1"/><feGaussianBlur stdDeviation="5" in="shadowOffsetOuter1" result="shadowBlurOuter1"/><feColorMatrix values="0 0 0 0 0 0 0 0 0 0 0 0 0 0 0 0 0 0 0.33003715 0" in="shadowBlurOuter1"/></filter><filter color-interpolation-filters="auto" id="c"><feColorMatrix in="SourceGraphic" values="0 0 0 0 0.113725 0 0 0 0 0.631373 0 0 0 0 0.949020 0 0 0 1.000000 0"/></filter></defs><g fill="none" fill-rule="evenodd"><g transform="translate(10 5)"><use fill="#000" filter="url(#a)" xlink:href="#b"/><use fill="#FFF" xlink:href="#b"/></g><path d="M68 6.69a28.197 28.197 0 0 1-8.016 2.207c2.853-1.725 5.095-4.552 6.114-7.863a27.154 27.154 0 0 1-8.831 3.449A13.794 13.794 0 0 0 47.077 0C39.4 0 33.15 6.345 33.15 14.138c0 1.103.136 2.207.34 3.241-11.617-.62-21.875-6.207-28.736-14.758C3.532 4.69 2.853 7.172 2.853 9.724c0 4.897 2.446 9.242 6.182 11.793a13.198 13.198 0 0 1-6.318-1.793v.207c0 6.828 4.823 12.552 11.21 13.862-1.156.345-2.379.483-3.67.483-.882 0-1.765-.07-2.649-.276 1.767 5.586 6.93 9.724 13.043 9.793a27.745 27.745 0 0 1-17.322 6.07c-1.155 0-2.242-.07-3.329-.208C6.182 53.655 13.518 56 21.33 56c25.611 0 39.673-21.586 39.673-40.276 0-.62 0-1.241-.068-1.862C63.788 12 66.165 9.517 68 6.69z" fill="#000" fill-rule="nonzero" transform="translate(29 28)" filter="url(#c)"/></g></svg>